<svg xmlns="http://www.w3.org/2000/svg" width="1024" height="256" viewBox="0 0 1024 256" fill="none">
  <defs>
    <linearGradient id="dashIconGlow" x1="0" y1="0" x2="1" y2="1">
      <stop stop-color="#22d3ee"/>
      <stop offset="0.55" stop-color="#a3e635"/>
      <stop offset="1" stop-color="#f43f5e"/>
    </linearGradient>
  </defs>
  <g stroke="url(#dashIconGlow)" stroke-width="10" stroke-linecap="round" stroke-linejoin="round">
    <path d="M64 174a64 64 0 1 1 128 0"/>
    <path d="M128 174l34-46"/>
    <path d="M298 178h80M338 138v80M314 154l48 48M362 154l-48 48"/>
    <path d="M506 74l58 22v48c0 40-23 66-58 84-35-18-58-44-58-84V96l58-22Z"/>
    <path d="M700 70v116M642 128h116M664 92l72 72M736 92l-72 72"/>
    <path d="M858 186V78h92v108M858 128h92"/>
  </g>
</svg>
